<!-- KeyNest Logo SVG -->
<svg width="512" height="512" viewBox="0 0 512 512" fill="none" xmlns="http://www.w3.org/2000/svg">
  <rect width="512" height="512" rx="100" fill="#007BFF"/>
  <path d="M256 120C194.157 120 144 170.157 144 232C144 269.686 163.349 302.906 192.636 323.172L175.03 390.541C174.392 392.845 174.979 395.301 176.616 397.079C178.253 398.856 180.761 399.695 183.149 399.312L256 389.467L328.851 399.312C331.239 399.695 333.747 398.856 335.384 397.079C337.021 395.301 337.608 392.845 336.97 390.541L319.364 323.172C348.651 302.906 368 269.686 368 232C368 170.157 317.843 120 256 120ZM256 160C295.764 160 328 192.236 328 232C328 271.764 295.764 304 256 304C216.236 304 184 271.764 184 232C184 192.236 216.236 160 256 160Z" fill="white"/>
  <circle cx="256" cy="232" r="32" fill="#007BFF"/>
</svg>